
<svg width="35px" height="35px" viewBox="0 0 35 35" version="1.1" xmlns="http://www.w3.org/2000/svg" xmlns:xlink="http://www.w3.org/1999/xlink">
    <g id="Inventory-Screen" stroke="none" stroke-width="1" fill="none" fill-rule="evenodd">
        <g id="Small" transform="translate(-323.000000, -508.000000)">
            <g id="30512" transform="translate(323.000000, 508.000000)">
                <polygon id="Path" points="0 0 35 0 35 35 0 35"></polygon>
                <path d="M28.83125,10.54375 L28.853125,10.521875 L23.4208333,5.10416667 L21.875,6.65 L24.9520833,9.72708333 C23.5406847,10.2634271 22.6066748,11.615131 22.6041667,13.125 C22.6041667,15.1375 24.2375,16.7708333 26.25,16.7708333 C26.7677083,16.7708333 27.2635417,16.6614583 27.7083333,16.4645833 L27.7083333,26.9791667 C27.7083333,27.78125 27.0520833,28.4375 26.25,28.4375 C25.4479167,28.4375 24.7916667,27.78125 24.7916667,26.9791667 L24.7916667,20.4166667 C24.7916667,18.8052083 23.4864583,17.5 21.875,17.5 L20.4166667,17.5 L20.4166667,7.29166667 C20.4166667,5.68020833 19.1114583,4.375 17.5,4.375 L8.75,4.375 C7.13854167,4.375 5.83333333,5.68020833 5.83333333,7.29166667 L5.83333333,30.625 L20.4166667,30.625 L20.4166667,19.6875 L22.6041667,19.6875 L22.6041667,26.9791667 C22.6041667,28.9916667 24.2375,30.625 26.25,30.625 C28.2625,30.625 29.8958333,28.9916667 29.8958333,26.9791667 L29.8958333,13.125 C29.8958333,12.11875 29.4875,11.2072917 28.83125,10.54375 Z M17.5,14.5833333 L8.75,14.5833333 L8.75,7.29166667 L17.5,7.29166667 L17.5,14.5833333 Z M26.25,14.5833333 C25.4479167,14.5833333 24.7916667,13.9270833 24.7916667,13.125 C24.7916667,12.3229167 25.4479167,11.6666667 26.25,11.6666667 C27.0520833,11.6666667 27.7083333,12.3229167 27.7083333,13.125 C27.7083333,13.9270833 27.0520833,14.5833333 26.25,14.5833333 Z" id="Shape" fill="#000000" fill-rule="nonzero"></path>
            </g>
        </g>
    </g>
</svg>