
<svg width="30px" height="30px" viewBox="0 0 30 30" version="1.1" xmlns="http://www.w3.org/2000/svg" xmlns:xlink="http://www.w3.org/1999/xlink">
    <g id="Inventory-Screen" stroke="none" stroke-width="1" fill="none" fill-rule="evenodd">
        <g id="Inventory" transform="translate(-833.000000, -139.000000)" fill="#2E3543" fill-rule="nonzero">
            <g id="Group" transform="translate(817.000000, 126.000000)">
                <g id="527970" transform="translate(16.000000, 13.000000)">
                    <path d="M20.5940594,19.1629956 C22.2662266,17.1365639 23.3223322,14.5374449 23.3223322,11.6740088 C23.3223322,5.24229075 18.0858086,0 11.6611661,0 C5.23652365,0 0,5.24229075 0,11.6740088 C0,18.1057269 5.23652365,23.3480176 11.6611661,23.3480176 C14.4774477,23.3480176 17.1177118,22.3348018 19.1419142,20.6167401 L28.2068207,29.69163 C28.4268427,29.9118943 28.6908691,30 28.9548955,30 C29.2189219,30 29.4829483,29.9118943 29.7029703,29.69163 C30.0990099,29.2951542 30.0990099,28.5903084 29.7029703,28.1938326 L20.5940594,19.1629956 Z M11.6171617,21.2334802 C6.33663366,21.2334802 2.06820682,16.9603524 2.06820682,11.6740088 C2.06820682,6.3876652 6.33663366,2.11453744 11.6171617,2.11453744 C16.8976898,2.11453744 21.1661166,6.3876652 21.1661166,11.6740088 C21.1661166,16.9603524 16.8976898,21.2334802 11.6171617,21.2334802 Z" id="Shape"></path>
                </g>
            </g>
        </g>
    </g>
</svg>